<svg width="142" height="35" viewBox="0 0 142 35" fill="none" xmlns="http://www.w3.org/2000/svg">
<path d="M8.52316 18H0.243866V4.91309H1.9841V16.4531H8.52316V18ZM17.7605 18H16.1169V16.9541C15.9704 17.0537 15.7712 17.1943 15.5193 17.376C15.2732 17.5518 15.0329 17.6924 14.7986 17.7979C14.5232 17.9326 14.2068 18.0439 13.8493 18.1318C13.4919 18.2256 13.073 18.2725 12.5925 18.2725C11.7077 18.2725 10.9577 17.9795 10.3425 17.3936C9.72726 16.8076 9.41965 16.0605 9.41965 15.1523C9.41965 14.4082 9.57785 13.8076 9.89426 13.3506C10.2165 12.8877 10.6736 12.5244 11.2654 12.2607C11.863 11.9971 12.5808 11.8184 13.4187 11.7246C14.2566 11.6309 15.156 11.5605 16.1169 11.5137V11.2588C16.1169 10.8838 16.0495 10.5732 15.9148 10.3271C15.7859 10.0811 15.5984 9.8877 15.3523 9.74707C15.1179 9.6123 14.8366 9.52148 14.5085 9.47461C14.1804 9.42773 13.8376 9.4043 13.4802 9.4043C13.0466 9.4043 12.5632 9.46289 12.03 9.58008C11.4968 9.69141 10.946 9.85547 10.3777 10.0723H10.2898V8.39355C10.612 8.30566 11.0779 8.20898 11.6872 8.10352C12.2966 7.99805 12.8972 7.94531 13.489 7.94531C14.1804 7.94531 14.781 8.00391 15.2907 8.12109C15.8064 8.23242 16.2517 8.42578 16.6267 8.70117C16.9958 8.9707 17.2771 9.31934 17.4704 9.74707C17.6638 10.1748 17.7605 10.7051 17.7605 11.3379V18ZM16.1169 15.583V12.8496C15.613 12.8789 15.0183 12.9229 14.3327 12.9814C13.653 13.04 13.114 13.125 12.7155 13.2363C12.2409 13.3711 11.8571 13.582 11.5642 13.8691C11.2712 14.1504 11.1247 14.54 11.1247 15.0381C11.1247 15.6006 11.2946 16.0254 11.6345 16.3125C11.9743 16.5938 12.4929 16.7344 13.1902 16.7344C13.7702 16.7344 14.3005 16.623 14.781 16.4004C15.2614 16.1719 15.7068 15.8994 16.1169 15.583ZM16.6443 6.53906H14.8952V4.8252H16.6443V6.53906ZM13.0144 6.53906H11.2654V4.8252H13.0144V6.53906ZM29.1511 18H27.4987V12.4102C27.4987 11.959 27.4724 11.5371 27.4196 11.1445C27.3669 10.7461 27.2702 10.4355 27.1296 10.2129C26.9831 9.9668 26.7722 9.78516 26.4968 9.66797C26.2214 9.54492 25.864 9.4834 25.4245 9.4834C24.9734 9.4834 24.5017 9.59473 24.0095 9.81738C23.5173 10.04 23.0456 10.3242 22.5945 10.6699V18H20.9421V8.18262H22.5945V9.27246C23.1101 8.84473 23.6433 8.51074 24.1941 8.27051C24.7448 8.03027 25.3103 7.91016 25.8904 7.91016C26.9509 7.91016 27.7595 8.22949 28.3161 8.86816C28.8728 9.50684 29.1511 10.4268 29.1511 11.6279V18ZM39.3464 15.1699C39.3464 16.0664 38.9743 16.8018 38.2302 17.376C37.4919 17.9502 36.4812 18.2373 35.198 18.2373C34.4714 18.2373 33.8034 18.1523 33.1941 17.9824C32.5905 17.8066 32.0837 17.6162 31.6736 17.4111V15.5566H31.7614C32.2829 15.9492 32.863 16.2627 33.5017 16.4971C34.1404 16.7256 34.7527 16.8398 35.3386 16.8398C36.0652 16.8398 36.6335 16.7227 37.0437 16.4883C37.4538 16.2539 37.6589 15.8848 37.6589 15.3809C37.6589 14.9941 37.5476 14.7012 37.3249 14.502C37.1023 14.3027 36.6745 14.1328 36.0417 13.9922C35.8073 13.9395 35.4997 13.8779 35.1189 13.8076C34.7439 13.7373 34.4011 13.6611 34.0905 13.5791C33.2292 13.3506 32.6169 13.0166 32.2536 12.5771C31.8962 12.1318 31.7175 11.5869 31.7175 10.9424C31.7175 10.5381 31.7995 10.1572 31.9636 9.7998C32.1335 9.44238 32.3884 9.12305 32.7282 8.8418C33.0564 8.56641 33.4724 8.34961 33.9763 8.19141C34.4861 8.02734 35.0544 7.94531 35.6814 7.94531C36.2673 7.94531 36.8591 8.01855 37.4568 8.16504C38.0603 8.30566 38.5612 8.47852 38.9597 8.68359V10.4502H38.8718C38.4499 10.1396 37.9372 9.87891 37.3337 9.66797C36.7302 9.45117 36.1384 9.34277 35.5583 9.34277C34.9548 9.34277 34.445 9.45996 34.029 9.69434C33.613 9.92285 33.405 10.2656 33.405 10.7227C33.405 11.127 33.531 11.4316 33.7829 11.6367C34.029 11.8418 34.4275 12.0088 34.9782 12.1377C35.2829 12.208 35.6228 12.2783 35.9978 12.3486C36.3786 12.4189 36.695 12.4834 36.947 12.542C37.7146 12.7178 38.3064 13.0195 38.7224 13.4473C39.1384 13.8809 39.3464 14.4551 39.3464 15.1699ZM46.8171 17.9121C46.5066 17.9941 46.1667 18.0615 45.7976 18.1143C45.4343 18.167 45.1091 18.1934 44.822 18.1934C43.82 18.1934 43.0583 17.9238 42.5368 17.3848C42.0154 16.8457 41.7546 15.9814 41.7546 14.792V9.57129H40.6384V8.18262H41.7546V5.36133H43.407V8.18262H46.8171V9.57129H43.407V14.0449C43.407 14.5605 43.4187 14.9648 43.4421 15.2578C43.4655 15.5449 43.5476 15.8145 43.6882 16.0664C43.8171 16.3008 43.9929 16.4736 44.2155 16.585C44.4441 16.6904 44.7898 16.7432 45.2527 16.7432C45.5222 16.7432 45.8034 16.7051 46.0964 16.6289C46.3894 16.5469 46.6003 16.4795 46.7292 16.4268H46.8171V17.9121ZM56.4499 18H54.8064V16.9541C54.6599 17.0537 54.4607 17.1943 54.2087 17.376C53.9626 17.5518 53.7224 17.6924 53.488 17.7979C53.2126 17.9326 52.8962 18.0439 52.5388 18.1318C52.1814 18.2256 51.7624 18.2725 51.282 18.2725C50.3972 18.2725 49.6472 17.9795 49.032 17.3936C48.4167 16.8076 48.1091 16.0605 48.1091 15.1523C48.1091 14.4082 48.2673 13.8076 48.5837 13.3506C48.906 12.8877 49.363 12.5244 49.9548 12.2607C50.5525 11.9971 51.2702 11.8184 52.1081 11.7246C52.946 11.6309 53.8454 11.5605 54.8064 11.5137V11.2588C54.8064 10.8838 54.739 10.5732 54.6042 10.3271C54.4753 10.0811 54.2878 9.8877 54.0417 9.74707C53.8073 9.6123 53.5261 9.52148 53.198 9.47461C52.8698 9.42773 52.5271 9.4043 52.1696 9.4043C51.7361 9.4043 51.2527 9.46289 50.7195 9.58008C50.1862 9.69141 49.6355 9.85547 49.0671 10.0723H48.9792V8.39355C49.3015 8.30566 49.7673 8.20898 50.3767 8.10352C50.9861 7.99805 51.5866 7.94531 52.1784 7.94531C52.8698 7.94531 53.4704 8.00391 53.9802 8.12109C54.4958 8.23242 54.9411 8.42578 55.3161 8.70117C55.6853 8.9707 55.9665 9.31934 56.1599 9.74707C56.3532 10.1748 56.4499 10.7051 56.4499 11.3379V18ZM54.8064 15.583V12.8496C54.3025 12.8789 53.7077 12.9229 53.0222 12.9814C52.3425 13.04 51.8034 13.125 51.405 13.2363C50.9304 13.3711 50.5466 13.582 50.2536 13.8691C49.9607 14.1504 49.8142 14.54 49.8142 15.0381C49.8142 15.6006 49.9841 16.0254 50.3239 16.3125C50.6638 16.5938 51.1823 16.7344 51.8796 16.7344C52.4597 16.7344 52.99 16.623 53.4704 16.4004C53.9509 16.1719 54.3962 15.8994 54.8064 15.583ZM67.8405 18H66.1882V12.4102C66.1882 11.959 66.1618 11.5371 66.1091 11.1445C66.0564 10.7461 65.9597 10.4355 65.8191 10.2129C65.6726 9.9668 65.4616 9.78516 65.1862 9.66797C64.9109 9.54492 64.5534 9.4834 64.114 9.4834C63.6628 9.4834 63.1911 9.59473 62.6989 9.81738C62.2068 10.04 61.7351 10.3242 61.2839 10.6699V18H59.6316V8.18262H61.2839V9.27246C61.7995 8.84473 62.3327 8.51074 62.8835 8.27051C63.4343 8.03027 63.9997 7.91016 64.5798 7.91016C65.6404 7.91016 66.4489 8.22949 67.0056 8.86816C67.5622 9.50684 67.8405 10.4268 67.8405 11.6279V18ZM78.9851 18H77.3327V16.9717C76.8581 17.3818 76.363 17.7012 75.8474 17.9297C75.3318 18.1582 74.7722 18.2725 74.1687 18.2725C72.9968 18.2725 72.0652 17.8213 71.3737 16.9189C70.6882 16.0166 70.3454 14.7656 70.3454 13.166C70.3454 12.334 70.4626 11.5928 70.697 10.9424C70.9372 10.292 71.2595 9.73828 71.6638 9.28125C72.0622 8.83594 72.5251 8.49609 73.0525 8.26172C73.5857 8.02734 74.1364 7.91016 74.7048 7.91016C75.2204 7.91016 75.6775 7.96582 76.0759 8.07715C76.4743 8.18262 76.8933 8.34961 77.3327 8.57812V4.32422H78.9851V18ZM77.3327 15.583V9.94922C76.8874 9.75 76.489 9.6123 76.1374 9.53613C75.7859 9.45996 75.4021 9.42188 74.9861 9.42188C74.0603 9.42188 73.3396 9.74414 72.8239 10.3887C72.3083 11.0332 72.0505 11.9473 72.0505 13.1309C72.0505 14.2969 72.2497 15.1846 72.6482 15.7939C73.0466 16.3975 73.6853 16.6992 74.5642 16.6992C75.0329 16.6992 75.5075 16.5967 75.988 16.3916C76.4685 16.1807 76.9167 15.9111 77.3327 15.583ZM90.7273 8.18262L86.7546 18H85.0935L81.1472 8.18262H82.9402L85.9812 15.9961L88.9958 8.18262H90.7273ZM100.518 18H98.8747V16.9541C98.7282 17.0537 98.529 17.1943 98.2771 17.376C98.031 17.5518 97.7907 17.6924 97.5564 17.7979C97.281 17.9326 96.9646 18.0439 96.6071 18.1318C96.2497 18.2256 95.8308 18.2725 95.3503 18.2725C94.4655 18.2725 93.7155 17.9795 93.1003 17.3936C92.4851 16.8076 92.1775 16.0605 92.1775 15.1523C92.1775 14.4082 92.3357 13.8076 92.6521 13.3506C92.9743 12.8877 93.4314 12.5244 94.0232 12.2607C94.6208 11.9971 95.3386 11.8184 96.1765 11.7246C97.0144 11.6309 97.9138 11.5605 98.8747 11.5137V11.2588C98.8747 10.8838 98.8073 10.5732 98.6726 10.3271C98.5437 10.0811 98.3562 9.8877 98.1101 9.74707C97.8757 9.6123 97.5945 9.52148 97.2663 9.47461C96.9382 9.42773 96.5954 9.4043 96.238 9.4043C95.8044 9.4043 95.321 9.46289 94.7878 9.58008C94.2546 9.69141 93.7038 9.85547 93.1355 10.0723H93.0476V8.39355C93.3698 8.30566 93.8357 8.20898 94.445 8.10352C95.0544 7.99805 95.655 7.94531 96.2468 7.94531C96.9382 7.94531 97.5388 8.00391 98.0486 8.12109C98.5642 8.23242 99.0095 8.42578 99.3845 8.70117C99.7536 8.9707 100.035 9.31934 100.228 9.74707C100.422 10.1748 100.518 10.7051 100.518 11.3379V18ZM98.8747 15.583V12.8496C98.3708 12.8789 97.7761 12.9229 97.0905 12.9814C96.4109 13.04 95.8718 13.125 95.4734 13.2363C94.9987 13.3711 94.615 13.582 94.322 13.8691C94.029 14.1504 93.8825 14.54 93.8825 15.0381C93.8825 15.6006 94.0525 16.0254 94.3923 16.3125C94.7321 16.5938 95.2507 16.7344 95.948 16.7344C96.528 16.7344 97.0583 16.623 97.5388 16.4004C98.0193 16.1719 98.4646 15.8994 98.8747 15.583ZM99.6657 3.67383C99.6657 4.51172 99.3669 5.2207 98.7693 5.80078C98.1716 6.38086 97.445 6.6709 96.5896 6.6709C95.7458 6.6709 95.0222 6.38379 94.4187 5.80957C93.8152 5.22949 93.5134 4.51758 93.5134 3.67383C93.5134 2.83594 93.8122 2.12988 94.4099 1.55566C95.0075 0.981445 95.7341 0.694336 96.5896 0.694336C97.4509 0.694336 98.1775 0.981445 98.7693 1.55566C99.3669 2.12988 99.6657 2.83594 99.6657 3.67383ZM98.3913 3.67383C98.3913 3.16992 98.2185 2.74512 97.8728 2.39941C97.5329 2.04785 97.1052 1.87207 96.5896 1.87207C96.0739 1.87207 95.6433 2.04492 95.2976 2.39062C94.9577 2.73633 94.7878 3.16406 94.7878 3.67383C94.7878 4.18359 94.9607 4.61133 95.3064 4.95703C95.6521 5.30273 96.0798 5.47559 96.5896 5.47559C97.1052 5.47559 97.5329 5.30273 97.8728 4.95703C98.2185 4.61133 98.3913 4.18359 98.3913 3.67383ZM109.826 9.98438H109.738C109.492 9.92578 109.252 9.88477 109.017 9.86133C108.789 9.83203 108.516 9.81738 108.2 9.81738C107.69 9.81738 107.198 9.93164 106.723 10.1602C106.249 10.3828 105.792 10.6729 105.352 11.0303V18H103.7V8.18262H105.352V9.63281C106.009 9.10547 106.586 8.7334 107.084 8.5166C107.588 8.29395 108.1 8.18262 108.622 8.18262C108.909 8.18262 109.117 8.19141 109.246 8.20898C109.375 8.2207 109.568 8.24707 109.826 8.28809V9.98438ZM119.344 18H117.692V16.9717C117.217 17.3818 116.722 17.7012 116.207 17.9297C115.691 18.1582 115.132 18.2725 114.528 18.2725C113.356 18.2725 112.425 17.8213 111.733 16.9189C111.048 16.0166 110.705 14.7656 110.705 13.166C110.705 12.334 110.822 11.5928 111.056 10.9424C111.297 10.292 111.619 9.73828 112.023 9.28125C112.422 8.83594 112.884 8.49609 113.412 8.26172C113.945 8.02734 114.496 7.91016 115.064 7.91016C115.58 7.91016 116.037 7.96582 116.435 8.07715C116.834 8.18262 117.253 8.34961 117.692 8.57812V4.32422H119.344V18ZM117.692 15.583V9.94922C117.247 9.75 116.848 9.6123 116.497 9.53613C116.145 9.45996 115.761 9.42188 115.345 9.42188C114.42 9.42188 113.699 9.74414 113.183 10.3887C112.668 11.0332 112.41 11.9473 112.41 13.1309C112.41 14.2969 112.609 15.1846 113.008 15.7939C113.406 16.3975 114.045 16.6992 114.924 16.6992C115.392 16.6992 115.867 16.5967 116.347 16.3916C116.828 16.1807 117.276 15.9111 117.692 15.583ZM130.814 13.2627H123.581C123.581 13.8662 123.672 14.3936 123.853 14.8447C124.035 15.29 124.284 15.6562 124.6 15.9434C124.905 16.2246 125.265 16.4355 125.681 16.5762C126.103 16.7168 126.566 16.7871 127.07 16.7871C127.738 16.7871 128.409 16.6553 129.083 16.3916C129.762 16.1221 130.246 15.8584 130.533 15.6006H130.621V17.4023C130.064 17.6367 129.496 17.833 128.916 17.9912C128.336 18.1494 127.726 18.2285 127.088 18.2285C125.459 18.2285 124.187 17.7891 123.273 16.9102C122.359 16.0254 121.902 14.7715 121.902 13.1484C121.902 11.543 122.339 10.2686 123.212 9.3252C124.091 8.38184 125.245 7.91016 126.675 7.91016C127.999 7.91016 129.018 8.29688 129.733 9.07031C130.454 9.84375 130.814 10.9424 130.814 12.3662V13.2627ZM129.206 11.9971C129.2 11.1299 128.98 10.459 128.547 9.98438C128.119 9.50977 127.466 9.27246 126.587 9.27246C125.702 9.27246 124.996 9.5332 124.468 10.0547C123.947 10.5762 123.651 11.2236 123.581 11.9971H129.206ZM141.528 18H139.876V12.4102C139.876 11.959 139.849 11.5371 139.797 11.1445C139.744 10.7461 139.647 10.4355 139.507 10.2129C139.36 9.9668 139.149 9.78516 138.874 9.66797C138.598 9.54492 138.241 9.4834 137.801 9.4834C137.35 9.4834 136.879 9.59473 136.386 9.81738C135.894 10.04 135.423 10.3242 134.971 10.6699V18H133.319V8.18262H134.971V9.27246C135.487 8.84473 136.02 8.51074 136.571 8.27051C137.122 8.03027 137.687 7.91016 138.267 7.91016C139.328 7.91016 140.136 8.22949 140.693 8.86816C141.25 9.50684 141.528 10.4268 141.528 11.6279V18Z" fill="#457692"/>
<path d="M32.3571 27.5889H29.7595V34H28.7927V27.5889H26.195V26.7295H32.3571V27.5889ZM37.4987 34H36.5857V33.4189C36.5043 33.4743 36.3936 33.5524 36.2536 33.6533C36.1169 33.751 35.9834 33.8291 35.8532 33.8877C35.7002 33.9626 35.5245 34.0244 35.3259 34.0732C35.1273 34.1253 34.8946 34.1514 34.6277 34.1514C34.1361 34.1514 33.7195 33.9886 33.3777 33.6631C33.0359 33.3376 32.865 32.9225 32.865 32.418C32.865 32.0046 32.9529 31.6709 33.1286 31.417C33.3077 31.1598 33.5616 30.958 33.8904 30.8115C34.2224 30.665 34.6211 30.5658 35.0866 30.5137C35.5521 30.4616 36.0518 30.4225 36.5857 30.3965V30.2549C36.5857 30.0465 36.5482 29.874 36.4734 29.7373C36.4017 29.6006 36.2976 29.4932 36.1609 29.415C36.0306 29.3402 35.8744 29.2897 35.6921 29.2637C35.5098 29.2376 35.3194 29.2246 35.1208 29.2246C34.8799 29.2246 34.6114 29.2572 34.3152 29.3223C34.0189 29.3841 33.7129 29.4753 33.3972 29.5957H33.3484V28.6631C33.5274 28.6143 33.7862 28.5605 34.1247 28.502C34.4633 28.4434 34.7969 28.4141 35.1257 28.4141C35.5098 28.4141 35.8435 28.4466 36.1267 28.5117C36.4131 28.5736 36.6605 28.681 36.8689 28.834C37.0739 28.9837 37.2302 29.1774 37.3376 29.415C37.445 29.6527 37.4987 29.9473 37.4987 30.2988V34ZM36.5857 32.6572V31.1387C36.3057 31.1549 35.9753 31.1794 35.5945 31.2119C35.2168 31.2445 34.9174 31.2917 34.696 31.3535C34.4323 31.4284 34.2191 31.5456 34.0564 31.7051C33.8936 31.8613 33.8122 32.0778 33.8122 32.3545C33.8122 32.667 33.9066 32.903 34.0954 33.0625C34.2842 33.2188 34.5723 33.2969 34.9597 33.2969C35.282 33.2969 35.5765 33.235 35.8435 33.1113C36.1104 32.9844 36.3578 32.833 36.5857 32.6572ZM43.8269 34H42.9089V30.8945C42.9089 30.6439 42.8943 30.4095 42.865 30.1914C42.8357 29.9701 42.782 29.7975 42.7038 29.6738C42.6224 29.5371 42.5053 29.4362 42.3523 29.3711C42.1993 29.3027 42.0007 29.2686 41.7566 29.2686C41.5059 29.2686 41.2439 29.3304 40.9704 29.4541C40.697 29.5778 40.4349 29.7357 40.1843 29.9277V34H39.2663V28.5459H40.1843V29.1514C40.4708 28.9137 40.767 28.7282 41.073 28.5947C41.379 28.4613 41.6931 28.3945 42.0154 28.3945C42.6045 28.3945 43.0538 28.5719 43.363 28.9268C43.6723 29.2816 43.8269 29.7926 43.8269 30.46V34ZM50.0183 34H49.1003V33.4287C48.8366 33.6566 48.5616 33.834 48.2751 33.9609C47.9887 34.0879 47.6778 34.1514 47.3425 34.1514C46.6915 34.1514 46.1739 33.9007 45.7898 33.3994C45.4089 32.8981 45.2185 32.2031 45.2185 31.3145C45.2185 30.8522 45.2836 30.4404 45.4138 30.0791C45.5473 29.7178 45.7263 29.4102 45.9509 29.1562C46.1723 28.9089 46.4294 28.7201 46.7224 28.5898C47.0186 28.4596 47.3246 28.3945 47.6404 28.3945C47.9268 28.3945 48.1807 28.4255 48.4021 28.4873C48.6234 28.5459 48.8562 28.6387 49.1003 28.7656V26.4023H50.0183V34ZM49.1003 32.6572V29.5273C48.8529 29.4167 48.6316 29.3402 48.4362 29.2979C48.2409 29.2555 48.0277 29.2344 47.7966 29.2344C47.2823 29.2344 46.8819 29.4134 46.5954 29.7715C46.309 30.1296 46.1657 30.6374 46.1657 31.2949C46.1657 31.9427 46.2764 32.4359 46.4978 32.7744C46.7191 33.1097 47.0739 33.2773 47.5622 33.2773C47.8226 33.2773 48.0863 33.2204 48.3532 33.1064C48.6202 32.9893 48.8692 32.8395 49.1003 32.6572ZM56.5417 28.5459L54.3347 34H53.4118L51.2195 28.5459H52.2155L53.905 32.8867L55.5798 28.5459H56.5417ZM61.9812 34H61.0681V33.4189C60.9867 33.4743 60.876 33.5524 60.7361 33.6533C60.5993 33.751 60.4659 33.8291 60.3357 33.8877C60.1827 33.9626 60.0069 34.0244 59.8083 34.0732C59.6098 34.1253 59.377 34.1514 59.1101 34.1514C58.6185 34.1514 58.2019 33.9886 57.8601 33.6631C57.5183 33.3376 57.3474 32.9225 57.3474 32.418C57.3474 32.0046 57.4353 31.6709 57.6111 31.417C57.7901 31.1598 58.044 30.958 58.3728 30.8115C58.7048 30.665 59.1036 30.5658 59.5691 30.5137C60.0346 30.4616 60.5342 30.4225 61.0681 30.3965V30.2549C61.0681 30.0465 61.0306 29.874 60.9558 29.7373C60.8842 29.6006 60.78 29.4932 60.6433 29.415C60.5131 29.3402 60.3568 29.2897 60.1745 29.2637C59.9922 29.2376 59.8018 29.2246 59.6032 29.2246C59.3624 29.2246 59.0938 29.2572 58.7976 29.3223C58.5014 29.3841 58.1954 29.4753 57.8796 29.5957H57.8308V28.6631C58.0098 28.6143 58.2686 28.5605 58.6071 28.502C58.9457 28.4434 59.2793 28.4141 59.6081 28.4141C59.9922 28.4141 60.3259 28.4466 60.6091 28.5117C60.8956 28.5736 61.143 28.681 61.3513 28.834C61.5564 28.9837 61.7126 29.1774 61.82 29.415C61.9275 29.6527 61.9812 29.9473 61.9812 30.2988V34ZM61.0681 32.6572V31.1387C60.7881 31.1549 60.4577 31.1794 60.0769 31.2119C59.6993 31.2445 59.3998 31.2917 59.1784 31.3535C58.9148 31.4284 58.7015 31.5456 58.5388 31.7051C58.376 31.8613 58.2946 32.0778 58.2946 32.3545C58.2946 32.667 58.389 32.903 58.5779 33.0625C58.7667 33.2188 59.0547 33.2969 59.4421 33.2969C59.7644 33.2969 60.059 33.235 60.3259 33.1113C60.5928 32.9844 60.8402 32.833 61.0681 32.6572ZM61.5075 26.041C61.5075 26.5065 61.3415 26.9004 61.0095 27.2227C60.6775 27.5449 60.2738 27.7061 59.7986 27.7061C59.3298 27.7061 58.9278 27.5465 58.5925 27.2275C58.2572 26.9053 58.0896 26.5098 58.0896 26.041C58.0896 25.5755 58.2556 25.1833 58.5876 24.8643C58.9196 24.5452 59.3233 24.3857 59.7986 24.3857C60.2771 24.3857 60.6807 24.5452 61.0095 24.8643C61.3415 25.1833 61.5075 25.5755 61.5075 26.041ZM60.7995 26.041C60.7995 25.7611 60.7035 25.5251 60.5114 25.333C60.3226 25.1377 60.085 25.04 59.7986 25.04C59.5121 25.04 59.2728 25.1361 59.0808 25.3281C58.892 25.5202 58.7976 25.7578 58.7976 26.041C58.7976 26.3242 58.8936 26.5618 59.0857 26.7539C59.2777 26.946 59.5154 27.042 59.7986 27.042C60.085 27.042 60.3226 26.946 60.5114 26.7539C60.7035 26.5618 60.7995 26.3242 60.7995 26.041ZM67.1521 29.5469H67.1032C66.9665 29.5143 66.8331 29.4915 66.7029 29.4785C66.5759 29.4622 66.4245 29.4541 66.2487 29.4541C65.9655 29.4541 65.6921 29.5176 65.4284 29.6445C65.1648 29.7682 64.9109 29.9294 64.6667 30.1279V34H63.7487V28.5459H64.6667V29.3516C65.0313 29.0586 65.3519 28.8519 65.6286 28.7314C65.9086 28.6077 66.1934 28.5459 66.4831 28.5459C66.6426 28.5459 66.7582 28.5508 66.8298 28.5605C66.9014 28.5671 67.0088 28.5817 67.1521 28.6045V29.5469ZM72.4402 34H71.5222V33.4287C71.2585 33.6566 70.9834 33.834 70.697 33.9609C70.4105 34.0879 70.0997 34.1514 69.7644 34.1514C69.1133 34.1514 68.5958 33.9007 68.2116 33.3994C67.8308 32.8981 67.6404 32.2031 67.6404 31.3145C67.6404 30.8522 67.7055 30.4404 67.8357 30.0791C67.9691 29.7178 68.1482 29.4102 68.3728 29.1562C68.5941 28.9089 68.8513 28.7201 69.1443 28.5898C69.4405 28.4596 69.7465 28.3945 70.0622 28.3945C70.3487 28.3945 70.6026 28.4255 70.8239 28.4873C71.0453 28.5459 71.278 28.6387 71.5222 28.7656V26.4023H72.4402V34ZM71.5222 32.6572V29.5273C71.2748 29.4167 71.0534 29.3402 70.8581 29.2979C70.6628 29.2555 70.4496 29.2344 70.2185 29.2344C69.7042 29.2344 69.3038 29.4134 69.0173 29.7715C68.7308 30.1296 68.5876 30.6374 68.5876 31.2949C68.5876 31.9427 68.6983 32.4359 68.9196 32.7744C69.141 33.1097 69.4958 33.2773 69.9841 33.2773C70.2445 33.2773 70.5082 33.2204 70.7751 33.1064C71.042 32.9893 71.2911 32.8395 71.5222 32.6572ZM80.697 27.291H80.6482C80.5473 27.2617 80.4154 27.2324 80.2527 27.2031C80.0899 27.1706 79.9467 27.1543 79.823 27.1543C79.4291 27.1543 79.1426 27.2422 78.9636 27.418C78.7878 27.5905 78.6999 27.9046 78.6999 28.3604V28.5459H80.3552V29.3174H78.7292V34H77.8112V29.3174H77.1911V28.5459H77.8112V28.3652C77.8112 27.7174 77.9724 27.221 78.2946 26.876C78.6169 26.5277 79.0824 26.3535 79.6911 26.3535C79.8962 26.3535 80.0801 26.3633 80.2429 26.3828C80.4089 26.4023 80.5603 26.4251 80.697 26.4512V27.291ZM85.9265 31.2754C85.9265 32.1641 85.6986 32.8656 85.2429 33.3799C84.7872 33.8942 84.1768 34.1514 83.4118 34.1514C82.6404 34.1514 82.0267 33.8942 81.571 33.3799C81.1185 32.8656 80.8923 32.1641 80.8923 31.2754C80.8923 30.3867 81.1185 29.6852 81.571 29.1709C82.0267 28.6533 82.6404 28.3945 83.4118 28.3945C84.1768 28.3945 84.7872 28.6533 85.2429 29.1709C85.6986 29.6852 85.9265 30.3867 85.9265 31.2754ZM84.9792 31.2754C84.9792 30.569 84.8409 30.0449 84.5642 29.7031C84.2875 29.3581 83.9034 29.1855 83.4118 29.1855C82.9138 29.1855 82.5264 29.3581 82.2497 29.7031C81.9763 30.0449 81.8396 30.569 81.8396 31.2754C81.8396 31.959 81.9779 32.4782 82.2546 32.833C82.5313 33.1846 82.917 33.3604 83.4118 33.3604C83.9001 33.3604 84.2826 33.1862 84.5593 32.8379C84.8392 32.4863 84.9792 31.9655 84.9792 31.2754ZM84.906 27.6328H83.9343V26.6807H84.906V27.6328ZM82.8894 27.6328H81.9177V26.6807H82.8894V27.6328ZM90.7556 29.5469H90.7068C90.57 29.5143 90.4366 29.4915 90.3064 29.4785C90.1794 29.4622 90.028 29.4541 89.8523 29.4541C89.5691 29.4541 89.2956 29.5176 89.032 29.6445C88.7683 29.7682 88.5144 29.9294 88.2702 30.1279V34H87.3523V28.5459H88.2702V29.3516C88.6348 29.0586 88.9555 28.8519 89.2321 28.7314C89.5121 28.6077 89.7969 28.5459 90.0866 28.5459C90.2461 28.5459 90.3617 28.5508 90.4333 28.5605C90.5049 28.5671 90.6124 28.5817 90.7556 28.6045V29.5469ZM99.3737 34H98.4607V33.4189C98.3793 33.4743 98.2686 33.5524 98.1286 33.6533C97.9919 33.751 97.8584 33.8291 97.7282 33.8877C97.5752 33.9626 97.3995 34.0244 97.2009 34.0732C97.0023 34.1253 96.7696 34.1514 96.5027 34.1514C96.0111 34.1514 95.5945 33.9886 95.2527 33.6631C94.9109 33.3376 94.74 32.9225 94.74 32.418C94.74 32.0046 94.8279 31.6709 95.0036 31.417C95.1827 31.1598 95.4366 30.958 95.7654 30.8115C96.0974 30.665 96.4961 30.5658 96.9616 30.5137C97.4271 30.4616 97.9268 30.4225 98.4607 30.3965V30.2549C98.4607 30.0465 98.4232 29.874 98.3484 29.7373C98.2767 29.6006 98.1726 29.4932 98.0359 29.415C97.9056 29.3402 97.7494 29.2897 97.5671 29.2637C97.3848 29.2376 97.1944 29.2246 96.9958 29.2246C96.7549 29.2246 96.4864 29.2572 96.1902 29.3223C95.8939 29.3841 95.5879 29.4753 95.2722 29.5957H95.2234V28.6631C95.4024 28.6143 95.6612 28.5605 95.9997 28.502C96.3383 28.4434 96.6719 28.4141 97.0007 28.4141C97.3848 28.4141 97.7185 28.4466 98.0017 28.5117C98.2881 28.5736 98.5355 28.681 98.7439 28.834C98.9489 28.9837 99.1052 29.1774 99.2126 29.415C99.32 29.6527 99.3737 29.9473 99.3737 30.2988V34ZM98.4607 32.6572V31.1387C98.1807 31.1549 97.8503 31.1794 97.4695 31.2119C97.0918 31.2445 96.7924 31.2917 96.571 31.3535C96.3073 31.4284 96.0941 31.5456 95.9314 31.7051C95.7686 31.8613 95.6872 32.0778 95.6872 32.3545C95.6872 32.667 95.7816 32.903 95.9704 33.0625C96.1592 33.2188 96.4473 33.2969 96.8347 33.2969C97.157 33.2969 97.4515 33.235 97.7185 33.1113C97.9854 32.9844 98.2328 32.833 98.4607 32.6572ZM102.069 34H101.151V26.4023H102.069V34ZM104.813 34H103.895V26.4023H104.813V34ZM110.868 34H109.955V33.4189C109.873 33.4743 109.763 33.5524 109.623 33.6533C109.486 33.751 109.353 33.8291 109.222 33.8877C109.069 33.9626 108.894 34.0244 108.695 34.0732C108.496 34.1253 108.264 34.1514 107.997 34.1514C107.505 34.1514 107.089 33.9886 106.747 33.6631C106.405 33.3376 106.234 32.9225 106.234 32.418C106.234 32.0046 106.322 31.6709 106.498 31.417C106.677 31.1598 106.931 30.958 107.259 30.8115C107.592 30.665 107.99 30.5658 108.456 30.5137C108.921 30.4616 109.421 30.4225 109.955 30.3965V30.2549C109.955 30.0465 109.917 29.874 109.842 29.7373C109.771 29.6006 109.667 29.4932 109.53 29.415C109.4 29.3402 109.244 29.2897 109.061 29.2637C108.879 29.2376 108.689 29.2246 108.49 29.2246C108.249 29.2246 107.981 29.2572 107.684 29.3223C107.388 29.3841 107.082 29.4753 106.766 29.5957H106.717V28.6631C106.897 28.6143 107.155 28.5605 107.494 28.502C107.832 28.4434 108.166 28.4141 108.495 28.4141C108.879 28.4141 109.213 28.4466 109.496 28.5117C109.782 28.5736 110.03 28.681 110.238 28.834C110.443 28.9837 110.599 29.1774 110.707 29.415C110.814 29.6527 110.868 29.9473 110.868 30.2988V34ZM109.955 32.6572V31.1387C109.675 31.1549 109.344 31.1794 108.964 31.2119C108.586 31.2445 108.287 31.2917 108.065 31.3535C107.801 31.4284 107.588 31.5456 107.426 31.7051C107.263 31.8613 107.181 32.0778 107.181 32.3545C107.181 32.667 107.276 32.903 107.465 33.0625C107.653 33.2188 107.941 33.2969 108.329 33.2969C108.651 33.2969 108.946 33.235 109.213 33.1113C109.48 32.9844 109.727 32.833 109.955 32.6572ZM114.134 34H112.967V32.6084H114.134V34Z" fill="#96999A"/>
</svg>
