<svg width="64" height="64" viewBox="0 0 64 64" fill="none" xmlns="http://www.w3.org/2000/svg">
<path d="M36.8801 50.6667C36.4817 50.6681 36.0881 50.5802 35.7282 50.4094C35.3682 50.2387 35.0511 49.9895 34.8001 49.6801L21.9201 33.6801C21.5279 33.2029 21.3135 32.6044 21.3135 31.9867C21.3135 31.3691 21.5279 30.7706 21.9201 30.2934L35.2534 14.2934C35.7061 13.7488 36.3565 13.4064 37.0616 13.3414C37.7668 13.2763 38.4689 13.4941 39.0134 13.9468C39.558 14.3994 39.9005 15.0498 39.9655 15.755C40.0305 16.4601 39.8127 17.1622 39.3601 17.7067L27.4401 32.0001L38.9601 46.2934C39.2862 46.6848 39.4933 47.1615 39.557 47.6669C39.6207 48.1724 39.5382 48.6855 39.3194 49.1456C39.1006 49.6057 38.7546 49.9935 38.3223 50.263C37.89 50.5326 37.3895 50.6727 36.8801 50.6667Z" fill="#5B5E5F"/>
</svg>
