<svg width="64" height="64" viewBox="0 0 64 64" fill="none" xmlns="http://www.w3.org/2000/svg">
<path d="M26.6667 50.6667C26.0436 50.6679 25.4398 50.4509 24.9601 50.0533C24.69 49.8295 24.4668 49.5545 24.3032 49.2443C24.1396 48.934 24.0388 48.5945 24.0066 48.2453C23.9744 47.896 24.0114 47.5438 24.1156 47.2089C24.2197 46.8739 24.3888 46.5628 24.6134 46.2933L36.5601 32L25.0401 17.68C24.8185 17.4072 24.6531 17.0934 24.5533 16.7565C24.4535 16.4196 24.4212 16.0663 24.4584 15.7169C24.4956 15.3674 24.6014 15.0288 24.7699 14.7205C24.9384 14.4121 25.1661 14.1401 25.4401 13.92C25.716 13.6772 26.0391 13.4941 26.3891 13.3822C26.7391 13.2702 27.1085 13.2318 27.4741 13.2693C27.8397 13.3069 28.1936 13.4196 28.5135 13.6004C28.8335 13.7812 29.1126 14.0262 29.3334 14.32L42.2134 30.32C42.6056 30.7972 42.82 31.3957 42.82 32.0133C42.82 32.631 42.6056 33.2295 42.2134 33.7067L28.8801 49.7067C28.6125 50.0294 28.2727 50.2845 27.8882 50.4513C27.5036 50.6181 27.0851 50.6919 26.6667 50.6667Z" fill="#5B5E5F"/>
</svg>
