<svg width="229" height="48" viewBox="0 0 229 48" fill="none" xmlns="http://www.w3.org/2000/svg">
<path d="M14.096 22.312V25H0.752V2.824H3.856V22.312H14.096ZM22.7858 22.856C23.4898 22.856 24.1084 22.8453 24.6418 22.824C25.1964 22.7813 25.6551 22.7173 26.0178 22.632V17.672C25.8044 17.5653 25.4524 17.48 24.9618 17.416C24.4924 17.3307 23.9164 17.288 23.2338 17.288C22.7858 17.288 22.3058 17.32 21.7938 17.384C21.3031 17.448 20.8444 17.5867 20.4178 17.8C20.0124 17.992 19.6711 18.2693 19.3938 18.632C19.1164 18.9733 18.9778 19.432 18.9778 20.008C18.9778 21.0747 19.3191 21.8213 20.0018 22.248C20.6844 22.6533 21.6124 22.856 22.7858 22.856ZM22.5298 7.944C23.7244 7.944 24.7271 8.104 25.5378 8.424C26.3698 8.72267 27.0311 9.16 27.5218 9.736C28.0338 10.2907 28.3964 10.9627 28.6098 11.752C28.8231 12.52 28.9298 13.3733 28.9298 14.312V24.712C28.6738 24.7547 28.3111 24.8187 27.8418 24.904C27.3938 24.968 26.8818 25.032 26.3058 25.096C25.7298 25.16 25.1004 25.2133 24.4178 25.256C23.7564 25.32 23.0951 25.352 22.4338 25.352C21.4951 25.352 20.6311 25.256 19.8418 25.064C19.0524 24.872 18.3698 24.5733 17.7938 24.168C17.2178 23.7413 16.7698 23.1867 16.4498 22.504C16.1298 21.8213 15.9698 21 15.9698 20.04C15.9698 19.1227 16.1511 18.3333 16.5138 17.672C16.8978 17.0107 17.4098 16.4773 18.0498 16.072C18.6898 15.6667 19.4364 15.368 20.2898 15.176C21.1431 14.984 22.0391 14.888 22.9778 14.888C23.2764 14.888 23.5858 14.9093 23.9058 14.952C24.2258 14.9733 24.5244 15.016 24.8018 15.08C25.1004 15.1227 25.3564 15.1653 25.5698 15.208C25.7831 15.2507 25.9324 15.2827 26.0178 15.304V14.472C26.0178 13.9813 25.9644 13.5013 25.8578 13.032C25.7511 12.5413 25.5591 12.1147 25.2818 11.752C25.0044 11.368 24.6204 11.0693 24.1298 10.856C23.6604 10.6213 23.0418 10.504 22.2738 10.504C21.2924 10.504 20.4284 10.5787 19.6818 10.728C18.9564 10.856 18.4124 10.9947 18.0498 11.144L17.6978 8.68C18.0818 8.50933 18.7218 8.34933 19.6178 8.2C20.5138 8.02933 21.4844 7.944 22.5298 7.944ZM19.9698 5.288C19.4791 5.288 19.0418 5.11733 18.6578 4.776C18.2951 4.41333 18.1138 3.95467 18.1138 3.4C18.1138 2.84533 18.2951 2.39733 18.6578 2.056C19.0418 1.69333 19.4791 1.512 19.9698 1.512C20.4604 1.512 20.8871 1.69333 21.2498 2.056C21.6338 2.39733 21.8258 2.84533 21.8258 3.4C21.8258 3.95467 21.6338 4.41333 21.2498 4.776C20.8871 5.11733 20.4604 5.288 19.9698 5.288ZM26.0498 5.288C25.5591 5.288 25.1218 5.11733 24.7378 4.776C24.3751 4.41333 24.1938 3.95467 24.1938 3.4C24.1938 2.84533 24.3751 2.39733 24.7378 2.056C25.1218 1.69333 25.5591 1.512 26.0498 1.512C26.5404 1.512 26.9671 1.69333 27.3298 2.056C27.7138 2.39733 27.9058 2.84533 27.9058 3.4C27.9058 3.95467 27.7138 4.41333 27.3298 4.776C26.9671 5.11733 26.5404 5.288 26.0498 5.288ZM33.8725 8.84C34.5552 8.66933 35.4618 8.488 36.5925 8.296C37.7232 8.104 39.0245 8.008 40.4965 8.008C41.8192 8.008 42.9178 8.2 43.7925 8.584C44.6672 8.94667 45.3605 9.46933 45.8725 10.152C46.4058 10.8133 46.7792 11.6133 46.9925 12.552C47.2058 13.4907 47.3125 14.5253 47.3125 15.656V25H44.3365V16.296C44.3365 15.272 44.2618 14.3973 44.1125 13.672C43.9845 12.9467 43.7605 12.36 43.4405 11.912C43.1205 11.464 42.6938 11.144 42.1605 10.952C41.6272 10.7387 40.9658 10.632 40.1765 10.632C39.8565 10.632 39.5258 10.6427 39.1845 10.664C38.8432 10.6853 38.5125 10.7173 38.1925 10.76C37.8938 10.7813 37.6165 10.8133 37.3605 10.856C37.1258 10.8987 36.9552 10.9307 36.8485 10.952V25H33.8725V8.84ZM56.1195 22.856C57.3355 22.856 58.2315 22.696 58.8075 22.376C59.4048 22.056 59.7035 21.544 59.7035 20.84C59.7035 20.1147 59.4155 19.5387 58.8395 19.112C58.2635 18.6853 57.3142 18.2053 55.9915 17.672C55.3515 17.416 54.7328 17.16 54.1355 16.904C53.5595 16.6267 53.0582 16.3067 52.6315 15.944C52.2048 15.5813 51.8635 15.144 51.6075 14.632C51.3515 14.12 51.2235 13.4907 51.2235 12.744C51.2235 11.272 51.7675 10.1093 52.8555 9.256C53.9435 8.38133 55.4262 7.944 57.3035 7.944C57.7728 7.944 58.2422 7.976 58.7115 8.04C59.1808 8.08267 59.6182 8.14667 60.0235 8.232C60.4288 8.296 60.7808 8.37067 61.0795 8.456C61.3995 8.54133 61.6448 8.616 61.8155 8.68L61.2715 11.24C60.9515 11.0693 60.4502 10.8987 59.7675 10.728C59.0848 10.536 58.2635 10.44 57.3035 10.44C56.4715 10.44 55.7462 10.6107 55.1275 10.952C54.5088 11.272 54.1995 11.784 54.1995 12.488C54.1995 12.8507 54.2635 13.1707 54.3915 13.448C54.5408 13.7253 54.7542 13.9813 55.0315 14.216C55.3302 14.4293 55.6928 14.632 56.1195 14.824C56.5462 15.016 57.0582 15.2187 57.6555 15.432C58.4448 15.7307 59.1488 16.0293 59.7675 16.328C60.3862 16.6053 60.9088 16.936 61.3355 17.32C61.7835 17.704 62.1248 18.1733 62.3595 18.728C62.5942 19.2613 62.7115 19.9227 62.7115 20.712C62.7115 22.248 62.1355 23.4107 60.9835 24.2C59.8528 24.9893 58.2315 25.384 56.1195 25.384C54.6475 25.384 53.4955 25.256 52.6635 25C51.8315 24.7653 51.2662 24.584 50.9675 24.456L51.5115 21.896C51.8528 22.024 52.3968 22.216 53.1435 22.472C53.8902 22.728 54.8822 22.856 56.1195 22.856ZM69.3128 8.36H75.6168V10.856H69.3128V18.536C69.3128 19.368 69.3768 20.0613 69.5048 20.616C69.6328 21.1493 69.8248 21.576 70.0808 21.896C70.3368 22.1947 70.6568 22.408 71.0408 22.536C71.4248 22.664 71.8728 22.728 72.3848 22.728C73.2808 22.728 73.9954 22.632 74.5288 22.44C75.0834 22.2267 75.4674 22.0773 75.6808 21.992L76.2568 24.456C75.9581 24.6053 75.4354 24.7867 74.6888 25C73.9421 25.2347 73.0888 25.352 72.1288 25.352C70.9981 25.352 70.0594 25.2133 69.3128 24.936C68.5874 24.6373 68.0008 24.2 67.5528 23.624C67.1048 23.048 66.7848 22.344 66.5928 21.512C66.4221 20.6587 66.3368 19.6773 66.3368 18.568V3.72L69.3128 3.208V8.36ZM85.0358 22.856C85.7398 22.856 86.3584 22.8453 86.8918 22.824C87.4464 22.7813 87.9051 22.7173 88.2678 22.632V17.672C88.0544 17.5653 87.7024 17.48 87.2118 17.416C86.7424 17.3307 86.1664 17.288 85.4838 17.288C85.0358 17.288 84.5558 17.32 84.0438 17.384C83.5531 17.448 83.0944 17.5867 82.6678 17.8C82.2624 17.992 81.9211 18.2693 81.6438 18.632C81.3664 18.9733 81.2278 19.432 81.2278 20.008C81.2278 21.0747 81.5691 21.8213 82.2518 22.248C82.9344 22.6533 83.8624 22.856 85.0358 22.856ZM84.7798 7.944C85.9744 7.944 86.9771 8.104 87.7878 8.424C88.6198 8.72267 89.2811 9.16 89.7718 9.736C90.2838 10.2907 90.6464 10.9627 90.8598 11.752C91.0731 12.52 91.1798 13.3733 91.1798 14.312V24.712C90.9238 24.7547 90.5611 24.8187 90.0918 24.904C89.6438 24.968 89.1318 25.032 88.5558 25.096C87.9798 25.16 87.3504 25.2133 86.6678 25.256C86.0064 25.32 85.3451 25.352 84.6838 25.352C83.7451 25.352 82.8811 25.256 82.0918 25.064C81.3024 24.872 80.6198 24.5733 80.0438 24.168C79.4678 23.7413 79.0198 23.1867 78.6998 22.504C78.3798 21.8213 78.2198 21 78.2198 20.04C78.2198 19.1227 78.4011 18.3333 78.7638 17.672C79.1478 17.0107 79.6598 16.4773 80.2998 16.072C80.9398 15.6667 81.6864 15.368 82.5398 15.176C83.3931 14.984 84.2891 14.888 85.2278 14.888C85.5264 14.888 85.8358 14.9093 86.1558 14.952C86.4758 14.9733 86.7744 15.016 87.0518 15.08C87.3504 15.1227 87.6064 15.1653 87.8198 15.208C88.0331 15.2507 88.1824 15.2827 88.2678 15.304V14.472C88.2678 13.9813 88.2144 13.5013 88.1078 13.032C88.0011 12.5413 87.8091 12.1147 87.5318 11.752C87.2544 11.368 86.8704 11.0693 86.3798 10.856C85.9104 10.6213 85.2918 10.504 84.5238 10.504C83.5424 10.504 82.6784 10.5787 81.9318 10.728C81.2064 10.856 80.6624 10.9947 80.2998 11.144L79.9478 8.68C80.3318 8.50933 80.9718 8.34933 81.8678 8.2C82.7638 8.02933 83.7344 7.944 84.7798 7.944ZM96.1225 8.84C96.8052 8.66933 97.7118 8.488 98.8425 8.296C99.9732 8.104 101.275 8.008 102.747 8.008C104.069 8.008 105.168 8.2 106.043 8.584C106.917 8.94667 107.611 9.46933 108.123 10.152C108.656 10.8133 109.029 11.6133 109.243 12.552C109.456 13.4907 109.562 14.5253 109.562 15.656V25H106.587V16.296C106.587 15.272 106.512 14.3973 106.363 13.672C106.235 12.9467 106.011 12.36 105.691 11.912C105.371 11.464 104.944 11.144 104.411 10.952C103.877 10.7387 103.216 10.632 102.427 10.632C102.107 10.632 101.776 10.6427 101.435 10.664C101.093 10.6853 100.763 10.7173 100.443 10.76C100.144 10.7813 99.8665 10.8133 99.6105 10.856C99.3758 10.8987 99.2052 10.9307 99.0985 10.952V25H96.1225V8.84ZM125.25 11.88C124.887 11.5813 124.364 11.2933 123.682 11.016C122.999 10.7387 122.252 10.6 121.442 10.6C120.588 10.6 119.852 10.76 119.234 11.08C118.636 11.3787 118.146 11.8053 117.762 12.36C117.378 12.8933 117.1 13.5333 116.93 14.28C116.759 15.0267 116.674 15.8267 116.674 16.68C116.674 18.6213 117.154 20.1253 118.114 21.192C119.074 22.2373 120.354 22.76 121.954 22.76C122.764 22.76 123.436 22.728 123.97 22.664C124.524 22.5787 124.951 22.4933 125.25 22.408V11.88ZM125.25 0.679998L128.226 0.167999V24.52C127.543 24.712 126.668 24.904 125.602 25.096C124.535 25.288 123.308 25.384 121.922 25.384C120.642 25.384 119.49 25.1813 118.466 24.776C117.442 24.3707 116.567 23.7947 115.842 23.048C115.116 22.3013 114.551 21.3947 114.146 20.328C113.762 19.24 113.57 18.024 113.57 16.68C113.57 15.4 113.73 14.2267 114.049 13.16C114.391 12.0933 114.882 11.176 115.522 10.408C116.162 9.64 116.94 9.04267 117.858 8.616C118.796 8.18933 119.863 7.976 121.058 7.976C122.018 7.976 122.86 8.104 123.586 8.36C124.332 8.616 124.887 8.86133 125.25 9.096V0.679998ZM146.333 8.36C145.501 11.4747 144.52 14.4613 143.389 17.32C142.28 20.1787 141.203 22.7387 140.157 25H137.469C136.424 22.7387 135.336 20.1787 134.205 17.32C133.096 14.4613 132.125 11.4747 131.293 8.36H134.493C134.749 9.40533 135.048 10.5253 135.389 11.72C135.752 12.8933 136.125 14.0667 136.509 15.24C136.915 16.392 137.32 17.512 137.725 18.6C138.131 19.688 138.515 20.6587 138.877 21.512C139.24 20.6587 139.624 19.688 140.029 18.6C140.435 17.512 140.829 16.392 141.213 15.24C141.619 14.0667 141.992 12.8933 142.333 11.72C142.696 10.5253 143.005 9.40533 143.261 8.36H146.333ZM155.036 22.856C155.74 22.856 156.358 22.8453 156.892 22.824C157.446 22.7813 157.905 22.7173 158.268 22.632V17.672C158.054 17.5653 157.702 17.48 157.212 17.416C156.742 17.3307 156.166 17.288 155.484 17.288C155.036 17.288 154.556 17.32 154.044 17.384C153.553 17.448 153.094 17.5867 152.668 17.8C152.262 17.992 151.921 18.2693 151.644 18.632C151.366 18.9733 151.228 19.432 151.228 20.008C151.228 21.0747 151.569 21.8213 152.252 22.248C152.934 22.6533 153.862 22.856 155.036 22.856ZM154.78 7.944C155.974 7.944 156.977 8.104 157.788 8.424C158.62 8.72267 159.281 9.16 159.772 9.736C160.284 10.2907 160.646 10.9627 160.86 11.752C161.073 12.52 161.18 13.3733 161.18 14.312V24.712C160.924 24.7547 160.561 24.8187 160.092 24.904C159.644 24.968 159.132 25.032 158.556 25.096C157.98 25.16 157.35 25.2133 156.668 25.256C156.006 25.32 155.345 25.352 154.684 25.352C153.745 25.352 152.881 25.256 152.092 25.064C151.302 24.872 150.62 24.5733 150.044 24.168C149.468 23.7413 149.02 23.1867 148.7 22.504C148.38 21.8213 148.22 21 148.22 20.04C148.22 19.1227 148.401 18.3333 148.764 17.672C149.148 17.0107 149.66 16.4773 150.3 16.072C150.94 15.6667 151.686 15.368 152.54 15.176C153.393 14.984 154.289 14.888 155.228 14.888C155.526 14.888 155.836 14.9093 156.156 14.952C156.476 14.9733 156.774 15.016 157.052 15.08C157.35 15.1227 157.606 15.1653 157.82 15.208C158.033 15.2507 158.182 15.2827 158.268 15.304V14.472C158.268 13.9813 158.214 13.5013 158.108 13.032C158.001 12.5413 157.809 12.1147 157.532 11.752C157.254 11.368 156.87 11.0693 156.38 10.856C155.91 10.6213 155.292 10.504 154.524 10.504C153.542 10.504 152.678 10.5787 151.932 10.728C151.206 10.856 150.662 10.9947 150.3 11.144L149.948 8.68C150.332 8.50933 150.972 8.34933 151.868 8.2C152.764 8.02933 153.734 7.944 154.78 7.944ZM158.556 3.336C158.556 3.848 158.46 4.30667 158.268 4.712C158.097 5.096 157.862 5.43733 157.564 5.736C157.265 6.01333 156.913 6.22667 156.508 6.376C156.124 6.52533 155.708 6.6 155.26 6.6C154.812 6.6 154.385 6.52533 153.98 6.376C153.596 6.22667 153.254 6.01333 152.956 5.736C152.657 5.43733 152.412 5.096 152.22 4.712C152.049 4.30667 151.964 3.848 151.964 3.336C151.964 2.824 152.049 2.376 152.22 1.992C152.412 1.58667 152.657 1.24533 152.956 0.967999C153.254 0.669332 153.596 0.445332 153.98 0.296C154.385 0.146666 154.812 0.0719986 155.26 0.0719986C155.708 0.0719986 156.124 0.146666 156.508 0.296C156.913 0.445332 157.265 0.669332 157.564 0.967999C157.862 1.24533 158.097 1.58667 158.268 1.992C158.46 2.376 158.556 2.824 158.556 3.336ZM156.956 3.336C156.956 2.78133 156.785 2.35467 156.444 2.056C156.124 1.736 155.729 1.576 155.26 1.576C154.79 1.576 154.385 1.736 154.044 2.056C153.724 2.35467 153.564 2.78133 153.564 3.336C153.564 3.89067 153.724 4.328 154.044 4.648C154.385 4.94667 154.79 5.096 155.26 5.096C155.729 5.096 156.124 4.94667 156.444 4.648C156.785 4.328 156.956 3.89067 156.956 3.336ZM172.267 8.008C172.523 8.008 172.811 8.02933 173.131 8.072C173.472 8.09333 173.803 8.136 174.123 8.2C174.443 8.24267 174.731 8.296 174.987 8.36C175.264 8.40267 175.467 8.44533 175.595 8.488L175.083 11.08C174.848 10.9947 174.453 10.8987 173.899 10.792C173.365 10.664 172.672 10.6 171.819 10.6C171.264 10.6 170.709 10.664 170.155 10.792C169.621 10.8987 169.269 10.9733 169.099 11.016V25H166.123V9.064C166.827 8.808 167.701 8.57333 168.747 8.36C169.792 8.12533 170.965 8.008 172.267 8.008ZM189.218 11.88C188.856 11.5813 188.333 11.2933 187.65 11.016C186.968 10.7387 186.221 10.6 185.41 10.6C184.557 10.6 183.821 10.76 183.202 11.08C182.605 11.3787 182.114 11.8053 181.73 12.36C181.346 12.8933 181.069 13.5333 180.898 14.28C180.728 15.0267 180.642 15.8267 180.642 16.68C180.642 18.6213 181.122 20.1253 182.082 21.192C183.042 22.2373 184.322 22.76 185.922 22.76C186.733 22.76 187.405 22.728 187.938 22.664C188.493 22.5787 188.92 22.4933 189.218 22.408V11.88ZM189.218 0.679998L192.194 0.167999V24.52C191.512 24.712 190.637 24.904 189.57 25.096C188.504 25.288 187.277 25.384 185.89 25.384C184.61 25.384 183.458 25.1813 182.434 24.776C181.41 24.3707 180.536 23.7947 179.81 23.048C179.085 22.3013 178.52 21.3947 178.114 20.328C177.73 19.24 177.538 18.024 177.538 16.68C177.538 15.4 177.698 14.2267 178.018 13.16C178.36 12.0933 178.85 11.176 179.49 10.408C180.13 9.64 180.909 9.04267 181.826 8.616C182.765 8.18933 183.832 7.976 185.026 7.976C185.986 7.976 186.829 8.104 187.554 8.36C188.301 8.616 188.856 8.86133 189.218 9.096V0.679998ZM196.382 16.712C196.382 15.24 196.595 13.96 197.022 12.872C197.449 11.7627 198.014 10.8453 198.718 10.12C199.422 9.39467 200.233 8.85067 201.15 8.488C202.067 8.12533 203.006 7.944 203.966 7.944C206.206 7.944 207.923 8.648 209.118 10.056C210.313 11.4427 210.91 13.5653 210.91 16.424C210.91 16.552 210.91 16.7227 210.91 16.936C210.91 17.128 210.899 17.3093 210.878 17.48H199.486C199.614 19.208 200.115 20.52 200.99 21.416C201.865 22.312 203.23 22.76 205.086 22.76C206.131 22.76 207.006 22.6747 207.71 22.504C208.435 22.312 208.979 22.1307 209.342 21.96L209.758 24.456C209.395 24.648 208.755 24.8507 207.838 25.064C206.942 25.2773 205.918 25.384 204.766 25.384C203.315 25.384 202.057 25.1707 200.99 24.744C199.945 24.296 199.081 23.688 198.398 22.92C197.715 22.152 197.203 21.2453 196.862 20.2C196.542 19.1333 196.382 17.9707 196.382 16.712ZM207.806 15.08C207.827 13.736 207.486 12.6373 206.782 11.784C206.099 10.9093 205.15 10.472 203.934 10.472C203.251 10.472 202.643 10.6107 202.11 10.888C201.598 11.144 201.161 11.4853 200.798 11.912C200.435 12.3387 200.147 12.8293 199.934 13.384C199.742 13.9387 199.614 14.504 199.55 15.08H207.806ZM215.185 8.84C215.868 8.66933 216.774 8.488 217.905 8.296C219.036 8.104 220.337 8.008 221.809 8.008C223.132 8.008 224.23 8.2 225.105 8.584C225.98 8.94667 226.673 9.46933 227.185 10.152C227.718 10.8133 228.092 11.6133 228.305 12.552C228.518 13.4907 228.625 14.5253 228.625 15.656V25H225.649V16.296C225.649 15.272 225.574 14.3973 225.425 13.672C225.297 12.9467 225.073 12.36 224.753 11.912C224.433 11.464 224.006 11.144 223.473 10.952C222.94 10.7387 222.278 10.632 221.489 10.632C221.169 10.632 220.838 10.6427 220.497 10.664C220.156 10.6853 219.825 10.7173 219.505 10.76C219.206 10.7813 218.929 10.8133 218.673 10.856C218.438 10.8987 218.268 10.9307 218.161 10.952V25H215.185V8.84Z" fill="#457692"/>
<path d="M60.3465 35.912V37.256H56.8585V47H55.3065V37.256H51.8185V35.912H60.3465ZM63.9866 45.928C64.3386 45.928 64.648 45.9227 64.9146 45.912C65.192 45.8907 65.4213 45.8587 65.6026 45.816V43.336C65.496 43.2827 65.32 43.24 65.0746 43.208C64.84 43.1653 64.552 43.144 64.2106 43.144C63.9866 43.144 63.7466 43.16 63.4906 43.192C63.2453 43.224 63.016 43.2933 62.8026 43.4C62.6 43.496 62.4293 43.6347 62.2906 43.816C62.152 43.9867 62.0826 44.216 62.0826 44.504C62.0826 45.0373 62.2533 45.4107 62.5946 45.624C62.936 45.8267 63.4 45.928 63.9866 45.928ZM63.8586 38.472C64.456 38.472 64.9573 38.552 65.3626 38.712C65.7786 38.8613 66.1093 39.08 66.3546 39.368C66.6106 39.6453 66.792 39.9813 66.8986 40.376C67.0053 40.76 67.0586 41.1867 67.0586 41.656V46.856C66.9306 46.8773 66.7493 46.9093 66.5146 46.952C66.2906 46.984 66.0346 47.016 65.7466 47.048C65.4586 47.08 65.144 47.1067 64.8026 47.128C64.472 47.16 64.1413 47.176 63.8106 47.176C63.3413 47.176 62.9093 47.128 62.5146 47.032C62.12 46.936 61.7786 46.7867 61.4906 46.584C61.2026 46.3707 60.9786 46.0933 60.8186 45.752C60.6586 45.4107 60.5786 45 60.5786 44.52C60.5786 44.0613 60.6693 43.6667 60.8506 43.336C61.0426 43.0053 61.2986 42.7387 61.6186 42.536C61.9386 42.3333 62.312 42.184 62.7386 42.088C63.1653 41.992 63.6133 41.944 64.0826 41.944C64.232 41.944 64.3866 41.9547 64.5466 41.976C64.7066 41.9867 64.856 42.008 64.9946 42.04C65.144 42.0613 65.272 42.0827 65.3786 42.104C65.4853 42.1253 65.56 42.1413 65.6026 42.152V41.736C65.6026 41.4907 65.576 41.2507 65.5226 41.016C65.4693 40.7707 65.3733 40.5573 65.2346 40.376C65.096 40.184 64.904 40.0347 64.6586 39.928C64.424 39.8107 64.1146 39.752 63.7306 39.752C63.24 39.752 62.808 39.7893 62.4346 39.864C62.072 39.928 61.8 39.9973 61.6186 40.072L61.4426 38.84C61.6346 38.7547 61.9546 38.6747 62.4026 38.6C62.8506 38.5147 63.336 38.472 63.8586 38.472ZM69.53 38.92C69.8713 38.8347 70.3247 38.744 70.89 38.648C71.4553 38.552 72.106 38.504 72.842 38.504C73.5033 38.504 74.0527 38.6 74.49 38.792C74.9273 38.9733 75.274 39.2347 75.53 39.576C75.7967 39.9067 75.9833 40.3067 76.09 40.776C76.1967 41.2453 76.25 41.7627 76.25 42.328V47H74.762V42.648C74.762 42.136 74.7247 41.6987 74.65 41.336C74.586 40.9733 74.474 40.68 74.314 40.456C74.154 40.232 73.9407 40.072 73.674 39.976C73.4073 39.8693 73.0767 39.816 72.682 39.816C72.522 39.816 72.3567 39.8213 72.186 39.832C72.0153 39.8427 71.85 39.8587 71.69 39.88C71.5407 39.8907 71.402 39.9067 71.274 39.928C71.1567 39.9493 71.0713 39.9653 71.018 39.976V47H69.53V38.92ZM84.0935 40.44C83.9122 40.2907 83.6508 40.1467 83.3095 40.008C82.9682 39.8693 82.5948 39.8 82.1895 39.8C81.7628 39.8 81.3948 39.88 81.0855 40.04C80.7868 40.1893 80.5415 40.4027 80.3495 40.68C80.1575 40.9467 80.0188 41.2667 79.9335 41.64C79.8482 42.0133 79.8055 42.4133 79.8055 42.84C79.8055 43.8107 80.0455 44.5627 80.5255 45.096C81.0055 45.6187 81.6455 45.88 82.4455 45.88C82.8508 45.88 83.1868 45.864 83.4535 45.832C83.7308 45.7893 83.9442 45.7467 84.0935 45.704V40.44ZM84.0935 34.84L85.5815 34.584V46.76C85.2402 46.856 84.8028 46.952 84.2695 47.048C83.7362 47.144 83.1228 47.192 82.4295 47.192C81.7895 47.192 81.2135 47.0907 80.7015 46.888C80.1895 46.6853 79.7522 46.3973 79.3895 46.024C79.0268 45.6507 78.7442 45.1973 78.5415 44.664C78.3495 44.12 78.2535 43.512 78.2535 42.84C78.2535 42.2 78.3335 41.6133 78.4935 41.08C78.6642 40.5467 78.9095 40.088 79.2295 39.704C79.5495 39.32 79.9388 39.0213 80.3975 38.808C80.8668 38.5947 81.4002 38.488 81.9975 38.488C82.4775 38.488 82.8988 38.552 83.2615 38.68C83.6348 38.808 83.9122 38.9307 84.0935 39.048V34.84ZM94.6354 38.68C94.2194 40.2373 93.7287 41.7307 93.1634 43.16C92.6087 44.5893 92.07 45.8693 91.5474 47H90.2034C89.6807 45.8693 89.1367 44.5893 88.5714 43.16C88.0167 41.7307 87.5314 40.2373 87.1154 38.68H88.7154C88.8434 39.2027 88.9927 39.7627 89.1634 40.36C89.3447 40.9467 89.5314 41.5333 89.7234 42.12C89.926 42.696 90.1287 43.256 90.3314 43.8C90.534 44.344 90.726 44.8293 90.9074 45.256C91.0887 44.8293 91.2807 44.344 91.4834 43.8C91.686 43.256 91.8834 42.696 92.0754 42.12C92.278 41.5333 92.4647 40.9467 92.6354 40.36C92.8167 39.7627 92.9714 39.2027 93.0994 38.68H94.6354ZM98.9866 45.928C99.3386 45.928 99.648 45.9227 99.9146 45.912C100.192 45.8907 100.421 45.8587 100.603 45.816V43.336C100.496 43.2827 100.32 43.24 100.075 43.208C99.84 43.1653 99.552 43.144 99.2106 43.144C98.9866 43.144 98.7466 43.16 98.4906 43.192C98.2453 43.224 98.016 43.2933 97.8026 43.4C97.6 43.496 97.4293 43.6347 97.2906 43.816C97.152 43.9867 97.0826 44.216 97.0826 44.504C97.0826 45.0373 97.2533 45.4107 97.5946 45.624C97.936 45.8267 98.4 45.928 98.9866 45.928ZM98.8586 38.472C99.456 38.472 99.9573 38.552 100.363 38.712C100.779 38.8613 101.109 39.08 101.355 39.368C101.611 39.6453 101.792 39.9813 101.899 40.376C102.005 40.76 102.059 41.1867 102.059 41.656V46.856C101.931 46.8773 101.749 46.9093 101.515 46.952C101.291 46.984 101.035 47.016 100.747 47.048C100.459 47.08 100.144 47.1067 99.8026 47.128C99.472 47.16 99.1413 47.176 98.8106 47.176C98.3413 47.176 97.9093 47.128 97.5146 47.032C97.12 46.936 96.7786 46.7867 96.4906 46.584C96.2026 46.3707 95.9786 46.0933 95.8186 45.752C95.6586 45.4107 95.5786 45 95.5786 44.52C95.5786 44.0613 95.6693 43.6667 95.8506 43.336C96.0426 43.0053 96.2986 42.7387 96.6186 42.536C96.9386 42.3333 97.312 42.184 97.7386 42.088C98.1653 41.992 98.6133 41.944 99.0826 41.944C99.232 41.944 99.3866 41.9547 99.5466 41.976C99.7066 41.9867 99.856 42.008 99.9946 42.04C100.144 42.0613 100.272 42.0827 100.379 42.104C100.485 42.1253 100.56 42.1413 100.603 42.152V41.736C100.603 41.4907 100.576 41.2507 100.523 41.016C100.469 40.7707 100.373 40.5573 100.235 40.376C100.096 40.184 99.904 40.0347 99.6586 39.928C99.424 39.8107 99.1146 39.752 98.7306 39.752C98.24 39.752 97.808 39.7893 97.4346 39.864C97.072 39.928 96.8 39.9973 96.6186 40.072L96.4426 38.84C96.6346 38.7547 96.9546 38.6747 97.4026 38.6C97.8506 38.5147 98.336 38.472 98.8586 38.472ZM100.747 36.168C100.747 36.424 100.699 36.6533 100.603 36.856C100.517 37.048 100.4 37.2187 100.251 37.368C100.101 37.5067 99.9253 37.6133 99.7226 37.688C99.5306 37.7627 99.3226 37.8 99.0986 37.8C98.8746 37.8 98.6613 37.7627 98.4586 37.688C98.2666 37.6133 98.096 37.5067 97.9466 37.368C97.7973 37.2187 97.6746 37.048 97.5786 36.856C97.4933 36.6533 97.4506 36.424 97.4506 36.168C97.4506 35.912 97.4933 35.688 97.5786 35.496C97.6746 35.2933 97.7973 35.1227 97.9466 34.984C98.096 34.8347 98.2666 34.7227 98.4586 34.648C98.6613 34.5733 98.8746 34.536 99.0986 34.536C99.3226 34.536 99.5306 34.5733 99.7226 34.648C99.9253 34.7227 100.101 34.8347 100.251 34.984C100.4 35.1227 100.517 35.2933 100.603 35.496C100.699 35.688 100.747 35.912 100.747 36.168ZM99.9466 36.168C99.9466 35.8907 99.8613 35.6773 99.6906 35.528C99.5306 35.368 99.3333 35.288 99.0986 35.288C98.864 35.288 98.6613 35.368 98.4906 35.528C98.3306 35.6773 98.2506 35.8907 98.2506 36.168C98.2506 36.4453 98.3306 36.664 98.4906 36.824C98.6613 36.9733 98.864 37.048 99.0986 37.048C99.3333 37.048 99.5306 36.9733 99.6906 36.824C99.8613 36.664 99.9466 36.4453 99.9466 36.168ZM107.602 38.504C107.73 38.504 107.874 38.5147 108.034 38.536C108.205 38.5467 108.37 38.568 108.53 38.6C108.69 38.6213 108.834 38.648 108.962 38.68C109.101 38.7013 109.202 38.7227 109.266 38.744L109.01 40.04C108.893 39.9973 108.695 39.9493 108.418 39.896C108.151 39.832 107.805 39.8 107.378 39.8C107.101 39.8 106.823 39.832 106.546 39.896C106.279 39.9493 106.103 39.9867 106.018 40.008V47H104.53V39.032C104.882 38.904 105.319 38.7867 105.842 38.68C106.365 38.5627 106.951 38.504 107.602 38.504ZM116.078 40.44C115.897 40.2907 115.635 40.1467 115.294 40.008C114.953 39.8693 114.579 39.8 114.174 39.8C113.747 39.8 113.379 39.88 113.07 40.04C112.771 40.1893 112.526 40.4027 112.334 40.68C112.142 40.9467 112.003 41.2667 111.918 41.64C111.833 42.0133 111.79 42.4133 111.79 42.84C111.79 43.8107 112.03 44.5627 112.51 45.096C112.99 45.6187 113.63 45.88 114.43 45.88C114.835 45.88 115.171 45.864 115.438 45.832C115.715 45.7893 115.929 45.7467 116.078 45.704V40.44ZM116.078 34.84L117.566 34.584V46.76C117.225 46.856 116.787 46.952 116.254 47.048C115.721 47.144 115.107 47.192 114.414 47.192C113.774 47.192 113.198 47.0907 112.686 46.888C112.174 46.6853 111.737 46.3973 111.374 46.024C111.011 45.6507 110.729 45.1973 110.526 44.664C110.334 44.12 110.238 43.512 110.238 42.84C110.238 42.2 110.318 41.6133 110.478 41.08C110.649 40.5467 110.894 40.088 111.214 39.704C111.534 39.32 111.923 39.0213 112.382 38.808C112.851 38.5947 113.385 38.488 113.982 38.488C114.462 38.488 114.883 38.552 115.246 38.68C115.619 38.808 115.897 38.9307 116.078 39.048V34.84ZM127.075 34.584C127.512 34.584 127.886 34.616 128.195 34.68C128.515 34.744 128.739 34.8027 128.867 34.856L128.595 36.136C128.467 36.072 128.286 36.0133 128.051 35.96C127.816 35.896 127.528 35.864 127.187 35.864C126.494 35.864 126.008 36.056 125.731 36.44C125.454 36.8133 125.315 37.32 125.315 37.96V38.68H128.515V39.928H125.315V47H123.827V37.928C123.827 36.8613 124.088 36.04 124.611 35.464C125.134 34.8773 125.955 34.584 127.075 34.584ZM137.343 42.84C137.343 43.5013 137.247 44.0987 137.055 44.632C136.863 45.1653 136.591 45.624 136.239 46.008C135.897 46.392 135.487 46.6907 135.007 46.904C134.527 47.1067 134.004 47.208 133.439 47.208C132.873 47.208 132.351 47.1067 131.871 46.904C131.391 46.6907 130.975 46.392 130.623 46.008C130.281 45.624 130.015 45.1653 129.823 44.632C129.631 44.0987 129.535 43.5013 129.535 42.84C129.535 42.1893 129.631 41.5973 129.823 41.064C130.015 40.52 130.281 40.056 130.623 39.672C130.975 39.288 131.391 38.9947 131.871 38.792C132.351 38.5787 132.873 38.472 133.439 38.472C134.004 38.472 134.527 38.5787 135.007 38.792C135.487 38.9947 135.897 39.288 136.239 39.672C136.591 40.056 136.863 40.52 137.055 41.064C137.247 41.5973 137.343 42.1893 137.343 42.84ZM135.791 42.84C135.791 41.9013 135.577 41.16 135.151 40.616C134.735 40.0613 134.164 39.784 133.439 39.784C132.713 39.784 132.137 40.0613 131.711 40.616C131.295 41.16 131.087 41.9013 131.087 42.84C131.087 43.7787 131.295 44.5253 131.711 45.08C132.137 45.624 132.713 45.896 133.439 45.896C134.164 45.896 134.735 45.624 135.151 45.08C135.577 44.5253 135.791 43.7787 135.791 42.84ZM131.919 37.144C131.673 37.144 131.455 37.0587 131.263 36.888C131.081 36.7067 130.991 36.4773 130.991 36.2C130.991 35.9227 131.081 35.6987 131.263 35.528C131.455 35.3467 131.673 35.256 131.919 35.256C132.164 35.256 132.377 35.3467 132.559 35.528C132.751 35.6987 132.847 35.9227 132.847 36.2C132.847 36.4773 132.751 36.7067 132.559 36.888C132.377 37.0587 132.164 37.144 131.919 37.144ZM134.959 37.144C134.713 37.144 134.495 37.0587 134.303 36.888C134.121 36.7067 134.031 36.4773 134.031 36.2C134.031 35.9227 134.121 35.6987 134.303 35.528C134.495 35.3467 134.713 35.256 134.959 35.256C135.204 35.256 135.417 35.3467 135.599 35.528C135.791 35.6987 135.887 35.9227 135.887 36.2C135.887 36.4773 135.791 36.7067 135.599 36.888C135.417 37.0587 135.204 37.144 134.959 37.144ZM142.508 38.504C142.636 38.504 142.78 38.5147 142.94 38.536C143.111 38.5467 143.276 38.568 143.436 38.6C143.596 38.6213 143.74 38.648 143.868 38.68C144.007 38.7013 144.108 38.7227 144.172 38.744L143.916 40.04C143.799 39.9973 143.602 39.9493 143.324 39.896C143.058 39.832 142.711 39.8 142.284 39.8C142.007 39.8 141.73 39.832 141.452 39.896C141.186 39.9493 141.01 39.9867 140.924 40.008V47H139.436V39.032C139.788 38.904 140.226 38.7867 140.748 38.68C141.271 38.5627 141.858 38.504 142.508 38.504ZM152.127 45.928C152.479 45.928 152.789 45.9227 153.055 45.912C153.333 45.8907 153.562 45.8587 153.743 45.816V43.336C153.637 43.2827 153.461 43.24 153.215 43.208C152.981 43.1653 152.693 43.144 152.351 43.144C152.127 43.144 151.887 43.16 151.631 43.192C151.386 43.224 151.157 43.2933 150.943 43.4C150.741 43.496 150.57 43.6347 150.431 43.816C150.293 43.9867 150.223 44.216 150.223 44.504C150.223 45.0373 150.394 45.4107 150.735 45.624C151.077 45.8267 151.541 45.928 152.127 45.928ZM151.999 38.472C152.597 38.472 153.098 38.552 153.503 38.712C153.919 38.8613 154.25 39.08 154.495 39.368C154.751 39.6453 154.933 39.9813 155.039 40.376C155.146 40.76 155.199 41.1867 155.199 41.656V46.856C155.071 46.8773 154.89 46.9093 154.655 46.952C154.431 46.984 154.175 47.016 153.887 47.048C153.599 47.08 153.285 47.1067 152.943 47.128C152.613 47.16 152.282 47.176 151.951 47.176C151.482 47.176 151.05 47.128 150.655 47.032C150.261 46.936 149.919 46.7867 149.631 46.584C149.343 46.3707 149.119 46.0933 148.959 45.752C148.799 45.4107 148.719 45 148.719 44.52C148.719 44.0613 148.81 43.6667 148.991 43.336C149.183 43.0053 149.439 42.7387 149.759 42.536C150.079 42.3333 150.453 42.184 150.879 42.088C151.306 41.992 151.754 41.944 152.223 41.944C152.373 41.944 152.527 41.9547 152.687 41.976C152.847 41.9867 152.997 42.008 153.135 42.04C153.285 42.0613 153.413 42.0827 153.519 42.104C153.626 42.1253 153.701 42.1413 153.743 42.152V41.736C153.743 41.4907 153.717 41.2507 153.663 41.016C153.61 40.7707 153.514 40.5573 153.375 40.376C153.237 40.184 153.045 40.0347 152.799 39.928C152.565 39.8107 152.255 39.752 151.871 39.752C151.381 39.752 150.949 39.7893 150.575 39.864C150.213 39.928 149.941 39.9973 149.759 40.072L149.583 38.84C149.775 38.7547 150.095 38.6747 150.543 38.6C150.991 38.5147 151.477 38.472 151.999 38.472ZM160.167 47.16C159.249 47.1387 158.599 46.9413 158.215 46.568C157.831 46.1947 157.639 45.6133 157.639 44.824V34.84L159.127 34.584V44.584C159.127 44.8293 159.148 45.032 159.191 45.192C159.233 45.352 159.303 45.48 159.399 45.576C159.495 45.672 159.623 45.7467 159.783 45.8C159.943 45.8427 160.14 45.88 160.375 45.912L160.167 47.16ZM164.542 47.16C163.624 47.1387 162.974 46.9413 162.59 46.568C162.206 46.1947 162.014 45.6133 162.014 44.824V34.84L163.502 34.584V44.584C163.502 44.8293 163.523 45.032 163.566 45.192C163.608 45.352 163.678 45.48 163.774 45.576C163.87 45.672 163.998 45.7467 164.158 45.8C164.318 45.8427 164.515 45.88 164.75 45.912L164.542 47.16ZM169.237 45.928C169.589 45.928 169.898 45.9227 170.165 45.912C170.442 45.8907 170.671 45.8587 170.853 45.816V43.336C170.746 43.2827 170.57 43.24 170.325 43.208C170.09 43.1653 169.802 43.144 169.461 43.144C169.237 43.144 168.997 43.16 168.741 43.192C168.495 43.224 168.266 43.2933 168.053 43.4C167.85 43.496 167.679 43.6347 167.541 43.816C167.402 43.9867 167.333 44.216 167.333 44.504C167.333 45.0373 167.503 45.4107 167.845 45.624C168.186 45.8267 168.65 45.928 169.237 45.928ZM169.109 38.472C169.706 38.472 170.207 38.552 170.613 38.712C171.029 38.8613 171.359 39.08 171.605 39.368C171.861 39.6453 172.042 39.9813 172.149 40.376C172.255 40.76 172.309 41.1867 172.309 41.656V46.856C172.181 46.8773 171.999 46.9093 171.765 46.952C171.541 46.984 171.285 47.016 170.997 47.048C170.709 47.08 170.394 47.1067 170.053 47.128C169.722 47.16 169.391 47.176 169.061 47.176C168.591 47.176 168.159 47.128 167.765 47.032C167.37 46.936 167.029 46.7867 166.741 46.584C166.453 46.3707 166.229 46.0933 166.069 45.752C165.909 45.4107 165.829 45 165.829 44.52C165.829 44.0613 165.919 43.6667 166.101 43.336C166.293 43.0053 166.549 42.7387 166.869 42.536C167.189 42.3333 167.562 42.184 167.989 42.088C168.415 41.992 168.863 41.944 169.333 41.944C169.482 41.944 169.637 41.9547 169.797 41.976C169.957 41.9867 170.106 42.008 170.245 42.04C170.394 42.0613 170.522 42.0827 170.629 42.104C170.735 42.1253 170.81 42.1413 170.853 42.152V41.736C170.853 41.4907 170.826 41.2507 170.773 41.016C170.719 40.7707 170.623 40.5573 170.485 40.376C170.346 40.184 170.154 40.0347 169.909 39.928C169.674 39.8107 169.365 39.752 168.981 39.752C168.49 39.752 168.058 39.7893 167.685 39.864C167.322 39.928 167.05 39.9973 166.869 40.072L166.693 38.84C166.885 38.7547 167.205 38.6747 167.653 38.6C168.101 38.5147 168.586 38.472 169.109 38.472ZM176.54 46.136C176.54 46.424 176.444 46.6747 176.252 46.888C176.06 47.1013 175.799 47.208 175.468 47.208C175.137 47.208 174.876 47.1013 174.684 46.888C174.492 46.6747 174.396 46.424 174.396 46.136C174.396 45.848 174.492 45.5973 174.684 45.384C174.876 45.1707 175.137 45.064 175.468 45.064C175.799 45.064 176.06 45.1707 176.252 45.384C176.444 45.5973 176.54 45.848 176.54 46.136Z" fill="#96999A"/>
</svg>
